<svg id="Layer_1" data-name="Layer 1" xmlns="http://www.w3.org/2000/svg" viewBox="0 0 176.74 119.37"><defs><style>.cls-1{fill:none;stroke:#0096d7;stroke-miterlimit:10;}.cls-2{fill:#0096d7;}</style></defs><title>GAMInvestments_120px_Blue_RGB</title><line class="cls-1" x1="53.71" x2="53.71" y2="93"/><line class="cls-1" x1="113.71" x2="113.71" y2="93"/><path class="cls-2" d="M47.06,36.9h1.36a13.27,13.27,0,0,1,1.72-5.67,34.68,34.68,0,0,0-17.37-4.06C22.21,27.32,7.18,31,6.58,51.08c0,0-1.68,23.74,25.55,23.91,0,0,10.76-.15,17.52-3.09,0,0-.31-14.28.35-19.62,0,0-2.69,1.16-7.12,0a79.38,79.38,0,0,1,.44,13l-.11,4.3s-3.14,2-10.23,2S13.71,68.28,13.84,50.36c0,0-.46-19.94,18.91-19.94,0,0,8.81-.49,14.31,6.48" transform="translate(-6.56 -4.99)"/><path class="cls-2" d="M91.1,27.51h-1.8S71,69.93,68.62,74.73a24.05,24.05,0,0,1,5.85-.08s3.1-10.26,6.24-17.57c0,0,8.47-.37,16.12-.12,0,0,5.19,12,6.93,17.5a36.52,36.52,0,0,1,8-.06S108,67.86,91.1,27.51M82.29,53.22,88.71,37.8l6.81,15.31c-5.65.33-13.24.11-13.24.11" transform="translate(-6.56 -4.99)"/><path class="cls-2" d="M137.49,27.52h-1.73s-2.12,21.23-6.53,47a20,20,0,0,1,5.52,0s-.41-4.26,3.06-33c0,0,14,27.14,16.47,32.85h1.17s6.39-14.64,16.81-32.9c0,0,2.34,21,3.14,33.08a27.42,27.42,0,0,1,7.07,0S179.67,54,177,27.52H175.5L156.17,63.39s-12.12-21.68-18.68-35.88" transform="translate(-6.56 -4.99)"/><path class="cls-2" d="M8.27,107.51q-.07-1.88-.16-3.84l.74.1a5.78,5.78,0,0,0,1.42,0l.74-.1q-.09,2-.16,3.84t-.07,3.84v5.1q0,2,.07,3.86t.16,3.74q-.68-.06-1.45-.06t-1.45.06q.09-1.84.16-3.74t.07-3.86v-5.1Q8.35,109.4,8.27,107.51Z" transform="translate(-6.56 -4.99)"/><path class="cls-2" d="M27.73,112.35a2.81,2.81,0,0,0-2.37-1.14,3.57,3.57,0,0,0-3,1.28,5.85,5.85,0,0,0-1,3.59v2.52q0,1.34,0,2.8t.19,2.66q-.68-.06-1.34-.06t-1.34.06q.15-1.19.19-2.66t0-2.8v-3.09q0-1.34,0-2.8T18.91,110a7.94,7.94,0,0,0,1.34.15,3.3,3.3,0,0,0,.52,0l.67-.1q-.09,1.19-.09,2.37h.06a6.21,6.21,0,0,1,2-2,5.26,5.26,0,0,1,2.76-.7,6.2,6.2,0,0,1,1.68.24,4,4,0,0,1,1.53.82,4.22,4.22,0,0,1,1.11,1.57,6.44,6.44,0,0,1,.43,2.54q0,1.28-.06,2.63t-.06,2.86v1.93q0,.47,0,.93t0,.88A12.33,12.33,0,0,0,29.6,124a12,12,0,0,0-1.22.06q.06-1.54.13-3.18t.07-3.35v-1.81A5.55,5.55,0,0,0,27.73,112.35Z" transform="translate(-6.56 -4.99)"/><path class="cls-2" d="M42.15,124.06q-1.37-3.5-2.75-7t-3-7.09l.74.1a5.9,5.9,0,0,0,.74,0,4.78,4.78,0,0,0,.65,0l.65-.1q.92,2.94,2,5.77t2.42,5.8q.59-1.22,1.17-2.63T45.93,116q.58-1.51,1.13-3t1.08-3A2.93,2.93,0,0,0,50,110q-1.6,3.59-3.15,7.09t-2.82,7a6.85,6.85,0,0,0-.92-.06A7.51,7.51,0,0,0,42.15,124.06Z" transform="translate(-6.56 -4.99)"/><path class="cls-2" d="M54.26,117.47A8.67,8.67,0,0,1,56,111.74a6.22,6.22,0,0,1,5.06-2.08,6.87,6.87,0,0,1,2.72.49,5.68,5.68,0,0,1,1.91,1.31,5.16,5.16,0,0,1,1.14,1.91,7.27,7.27,0,0,1,.37,2.34c0,.2,0,.39,0,.58s0,.38,0,.58L64,116.82l-3.18,0-1.94,0-1.94.06a2.45,2.45,0,0,0,0,.44v.39a6.72,6.72,0,0,0,.34,2.17,4.91,4.91,0,0,0,1,1.74,4.75,4.75,0,0,0,1.6,1.16,5.27,5.27,0,0,0,2.2.43,4.79,4.79,0,0,0,1.22-.16,6.86,6.86,0,0,0,1.22-.45,6.56,6.56,0,0,0,1.11-.67,5.64,5.64,0,0,0,.91-.83l.15.09-.18,1.45a8.21,8.21,0,0,1-2.21,1.22,7.64,7.64,0,0,1-2.75.5,8.35,8.35,0,0,1-2.92-.49,6.47,6.47,0,0,1-2.29-1.42,6.39,6.39,0,0,1-1.48-2.21A7.25,7.25,0,0,1,54.26,117.47Zm6.86-6.86a3.27,3.27,0,0,0-1.85.5A4.34,4.34,0,0,0,58,112.38a6,6,0,0,0-.74,1.66,8.79,8.79,0,0,0-.31,1.71l1.91.06,1.94,0,2,0,2-.06a11.41,11.41,0,0,0-.13-1.69,5.28,5.28,0,0,0-.53-1.66A3.55,3.55,0,0,0,63,111.12,3.17,3.17,0,0,0,61.11,110.62Z" transform="translate(-6.56 -4.99)"/><path class="cls-2" d="M73.59,122a4.44,4.44,0,0,0,.74.67,4.15,4.15,0,0,0,1,.52,3.27,3.27,0,0,0,1.17.21,3.32,3.32,0,0,0,1.08-.18,3,3,0,0,0,.92-.5,2.34,2.34,0,0,0,.64-.83,2.69,2.69,0,0,0,.24-1.16,1.85,1.85,0,0,0-.52-1.41,4.09,4.09,0,0,0-1.29-.8,13.64,13.64,0,0,0-1.69-.55,7.11,7.11,0,0,1-1.69-.67,4,4,0,0,1-1.29-1.14,3.27,3.27,0,0,1-.52-2,4.78,4.78,0,0,1,.33-1.8,3.94,3.94,0,0,1,.95-1.41,4.45,4.45,0,0,1,1.54-.93,6,6,0,0,1,2.11-.34,5.11,5.11,0,0,1,1.85.3q.76.3,1.44.53a6.59,6.59,0,0,0-.44,1.1,7.93,7.93,0,0,0-.27,1h-.36a2.82,2.82,0,0,0-.92-1.28,2.57,2.57,0,0,0-1.69-.56,2.81,2.81,0,0,0-.89.15,2.46,2.46,0,0,0-.8.45,2.35,2.35,0,0,0-.59.77,2.49,2.49,0,0,0-.24,1.13,2,2,0,0,0,.52,1.47,3.64,3.64,0,0,0,1.29.82,13.57,13.57,0,0,0,1.69.52,7.5,7.5,0,0,1,1.69.62,3.68,3.68,0,0,1,1.29,1.11,3.27,3.27,0,0,1,.52,2,4.11,4.11,0,0,1-.37,1.69,4.74,4.74,0,0,1-1.07,1.5,4.89,4.89,0,0,1-1.68,1,6.25,6.25,0,0,1-2.23.37,8.32,8.32,0,0,1-2.29-.27,7.15,7.15,0,0,1-1.54-.62,7.78,7.78,0,0,0,.37-1.05,4.18,4.18,0,0,0,.19-1.11h.36A3.2,3.2,0,0,0,73.59,122Z" transform="translate(-6.56 -4.99)"/><path class="cls-2" d="M90.49,106q-.09,1.13-.13,2.21t-.1,2.18l1.22,0q.89,0,1.93-.07a1.2,1.2,0,0,0,0,.33v.62a1,1,0,0,0,0,.3l-.8,0H90.26q0,.12-.07.95t-.07,2q0,1.14,0,2.39T90,119q0,.83,0,1.63a4.88,4.88,0,0,0,.28,1.44,2.33,2.33,0,0,0,.71,1,2.12,2.12,0,0,0,1.37.39,4.5,4.5,0,0,0,.64-.06,5,5,0,0,0,.7-.15V124l-1.11.22a5.47,5.47,0,0,1-1.17.13,3.69,3.69,0,0,1-2.76-.92,3.73,3.73,0,0,1-.89-2.7q0-.8,0-1.74t.07-2q0-1.11.07-2.46t0-3H86.61l-.56,0c0-.12,0-.23,0-.34s0-.22,0-.34,0-.2,0-.3,0-.2,0-.3q1.34.09,2,.09,0-.59,0-1.48T87.88,107l2.46-1Z" transform="translate(-6.56 -4.99)"/><path class="cls-2" d="M99,112.71q0-1.47-.19-2.75a7.93,7.93,0,0,0,1.34.15,3.31,3.31,0,0,0,.52,0l.67-.1q-.09,1.19-.09,2.37h.06a4.89,4.89,0,0,1,4.42-2.67,4.84,4.84,0,0,1,1.45.22,5,5,0,0,1,1.29.61,4.09,4.09,0,0,1,1,.93,3.14,3.14,0,0,1,.56,1.17h.06a5.23,5.23,0,0,1,1.94-2.18,5.3,5.3,0,0,1,2.83-.76,5.9,5.9,0,0,1,1.81.27,3.66,3.66,0,0,1,2.39,2.29,6,6,0,0,1,.34,2.14q0,.5,0,1.1t-.06,1.38q0,.79-.06,1.78t0,2.3q0,.8,0,1.54t.07,1.6a3.58,3.58,0,0,0-.65-.06h-1.28a3.57,3.57,0,0,0-.65.06q.09-.74.19-3t.1-6.29a5.73,5.73,0,0,0-.16-1.39,3.12,3.12,0,0,0-.52-1.13,2.51,2.51,0,0,0-.95-.76,3.46,3.46,0,0,0-1.48-.28,3.66,3.66,0,0,0-1.81.42,3.58,3.58,0,0,0-1.16,1,3.08,3.08,0,0,0-.37.65,3.92,3.92,0,0,0-.21,1q-.07.67-.1,1.87t0,3.31q0,1.28,0,2.33t.1,2.3q-.68-.06-1.31-.06t-1.31.06q.15-1.63.21-3.32t.06-3.32q0-1.39,0-2.18A12.23,12.23,0,0,0,108,114a3.88,3.88,0,0,0-.16-.76,5.69,5.69,0,0,0-.28-.65,2.69,2.69,0,0,0-1-1,2.85,2.85,0,0,0-1.44-.4,3.31,3.31,0,0,0-2.88,1.28,6.06,6.06,0,0,0-.92,3.59v2.52q0,1.34,0,2.8t.19,2.66q-.68-.06-1.34-.06t-1.34.06q.15-1.19.19-2.66t0-2.8v-3.09Q99.07,114.18,99,112.71Z" transform="translate(-6.56 -4.99)"/><path class="cls-2" d="M125.48,117.47a8.67,8.67,0,0,1,1.74-5.73,6.22,6.22,0,0,1,5.06-2.08,6.87,6.87,0,0,1,2.72.49,5.68,5.68,0,0,1,1.91,1.31,5.16,5.16,0,0,1,1.14,1.91,7.27,7.27,0,0,1,.37,2.34c0,.2,0,.39,0,.58s0,.38,0,.58l-3.18-.06-3.18,0-1.94,0-1.94.06a2.45,2.45,0,0,0,0,.44v.39a6.72,6.72,0,0,0,.34,2.17,4.91,4.91,0,0,0,1,1.74,4.75,4.75,0,0,0,1.6,1.16,5.27,5.27,0,0,0,2.2.43,4.79,4.79,0,0,0,1.22-.16,6.86,6.86,0,0,0,1.22-.45,6.56,6.56,0,0,0,1.11-.67,5.64,5.64,0,0,0,.91-.83l.15.09-.18,1.45a8.21,8.21,0,0,1-2.21,1.22,7.64,7.64,0,0,1-2.75.5,8.35,8.35,0,0,1-2.92-.49,6.47,6.47,0,0,1-2.29-1.42,6.39,6.39,0,0,1-1.48-2.21A7.25,7.25,0,0,1,125.48,117.47Zm6.86-6.86a3.27,3.27,0,0,0-1.85.5,4.34,4.34,0,0,0-1.25,1.26,6,6,0,0,0-.74,1.66,8.79,8.79,0,0,0-.31,1.71l1.91.06,1.94,0,2,0,2-.06a11.41,11.41,0,0,0-.13-1.69,5.28,5.28,0,0,0-.53-1.66,3.55,3.55,0,0,0-1.11-1.28A3.17,3.17,0,0,0,132.34,110.62Z" transform="translate(-6.56 -4.99)"/><path class="cls-2" d="M153.32,112.35a2.81,2.81,0,0,0-2.37-1.14,3.57,3.57,0,0,0-3,1.28,5.85,5.85,0,0,0-1,3.59v2.52q0,1.34,0,2.8t.19,2.66q-.68-.06-1.34-.06t-1.34.06q.15-1.19.19-2.66t0-2.8v-3.09q0-1.34,0-2.8T144.5,110a7.94,7.94,0,0,0,1.34.15,3.3,3.3,0,0,0,.52,0l.67-.1q-.09,1.19-.09,2.37H147a6.21,6.21,0,0,1,2-2,5.26,5.26,0,0,1,2.76-.7,6.2,6.2,0,0,1,1.68.24,4,4,0,0,1,1.53.82,4.22,4.22,0,0,1,1.11,1.57,6.44,6.44,0,0,1,.43,2.54q0,1.28-.06,2.63t-.06,2.86v1.93q0,.47,0,.93t0,.88a12.33,12.33,0,0,0-1.25-.06,12,12,0,0,0-1.22.06q.06-1.54.13-3.18t.07-3.35v-1.81A5.55,5.55,0,0,0,153.32,112.35Z" transform="translate(-6.56 -4.99)"/><path class="cls-2" d="M166.67,106q-.09,1.13-.13,2.21t-.1,2.18l1.22,0q.89,0,1.93-.07a1.2,1.2,0,0,0,0,.33v.62a1,1,0,0,0,0,.3l-.8,0h-2.34q0,.12-.07.95t-.07,2q0,1.14,0,2.39t0,2.23q0,.83,0,1.63a4.88,4.88,0,0,0,.28,1.44,2.33,2.33,0,0,0,.71,1,2.12,2.12,0,0,0,1.37.39,4.5,4.5,0,0,0,.64-.06,5,5,0,0,0,.7-.15V124l-1.11.22a5.47,5.47,0,0,1-1.17.13,3.69,3.69,0,0,1-2.76-.92,3.73,3.73,0,0,1-.89-2.7q0-.8,0-1.74t.07-2q0-1.11.07-2.46t0-3h-1.45l-.56,0c0-.12,0-.23,0-.34s0-.22,0-.34,0-.2,0-.3,0-.2,0-.3q1.34.09,2,.09,0-.59,0-1.48t-.07-1.84l2.46-1Z" transform="translate(-6.56 -4.99)"/><path class="cls-2" d="M175.5,122a4.44,4.44,0,0,0,.74.67,4.15,4.15,0,0,0,1,.52,3.27,3.27,0,0,0,1.17.21,3.32,3.32,0,0,0,1.08-.18,3,3,0,0,0,.92-.5,2.34,2.34,0,0,0,.64-.83,2.69,2.69,0,0,0,.24-1.16,1.85,1.85,0,0,0-.52-1.41,4.09,4.09,0,0,0-1.29-.8,13.64,13.64,0,0,0-1.69-.55,7.11,7.11,0,0,1-1.69-.67,4,4,0,0,1-1.29-1.14,3.27,3.27,0,0,1-.52-2,4.78,4.78,0,0,1,.33-1.8,3.94,3.94,0,0,1,.95-1.41,4.45,4.45,0,0,1,1.54-.93,6,6,0,0,1,2.11-.34,5.11,5.11,0,0,1,1.85.3q.76.3,1.44.53a6.59,6.59,0,0,0-.44,1.1,7.93,7.93,0,0,0-.27,1h-.36a2.82,2.82,0,0,0-.92-1.28,2.57,2.57,0,0,0-1.69-.56,2.81,2.81,0,0,0-.89.15,2.46,2.46,0,0,0-.8.45,2.35,2.35,0,0,0-.59.77,2.49,2.49,0,0,0-.24,1.13,2,2,0,0,0,.52,1.47,3.64,3.64,0,0,0,1.29.82,13.57,13.57,0,0,0,1.69.52,7.5,7.5,0,0,1,1.69.62,3.68,3.68,0,0,1,1.29,1.11,3.27,3.27,0,0,1,.52,2,4.11,4.11,0,0,1-.37,1.69,4.74,4.74,0,0,1-1.07,1.5,4.89,4.89,0,0,1-1.68,1,6.25,6.25,0,0,1-2.23.37,8.32,8.32,0,0,1-2.29-.27,7.15,7.15,0,0,1-1.54-.62,7.78,7.78,0,0,0,.37-1.05,4.18,4.18,0,0,0,.19-1.11H175A3.2,3.2,0,0,0,175.5,122Z" transform="translate(-6.56 -4.99)"/></svg>